<svg width="274" height="274" xmlns="http://www.w3.org/2000/svg" xmlns:xlink="http://www.w3.org/1999/xlink" xml:space="preserve" overflow="hidden"><g transform="translate(-500 -180)"><g><g><g><g><path d="M61.425 142.472 70.525 135.647 47.775 105.503 17.6313 128.538 24.4563 137.353 38.9594 126.263 34.4094 160.672 45.7844 162.094 50.3344 127.969Z" stroke="#000000" stroke-width="2.84379" stroke-linecap="butt" stroke-linejoin="miter" stroke-miterlimit="4" stroke-opacity="1" fill="#FF7E79" fill-rule="nonzero" fill-opacity="1" transform="matrix(-1 0 0 1.00366 774 180)"/><path d="M57.4438 75.9281 61.9937 41.5187 50.9031 40.0969 46.0688 74.5062 34.9781 59.7188 25.8781 66.5437 48.9125 96.6875 79.0563 73.9375 72.2312 64.8375Z" stroke="#000000" stroke-width="2.84379" stroke-linecap="butt" stroke-linejoin="miter" stroke-miterlimit="4" stroke-opacity="1" fill="#FF7E79" fill-rule="nonzero" fill-opacity="1" transform="matrix(-1 0 0 1.00366 774 180)"/><path d="M250.534 199.631C243.141 183.137 261.341 173.184 247.122 141.903 243.709 134.509 232.619 109.769 228.069 99.8156 224.656 92.1375 215.556 88.4406 207.594 92.1375 204.181 93.5594 201.622 96.1188 199.916 99.5312 199.916 99.8156 199.631 99.8156 199.347 99.5312 198.778 98.1094 198.209 96.9719 197.072 95.8344 194.228 92.1375 189.963 89.8625 185.412 89.8625 178.872 89.5781 173.184 93.5594 170.625 99.2469 170.625 99.5312 170.341 99.5312 170.056 99.2469 164.938 92.7062 155.553 91.5687 148.728 96.6875 144.747 99.5312 142.472 105.219 143.609 110.906 143.609 111.191 143.325 111.191 143.325 110.906L118.869 56.3062C116.025 49.7656 108.347 46.3531 101.806 49.1969 95.2656 52.0406 91.8531 59.7188 94.6969 66.2594 94.6969 66.5437 94.9813 66.5437 94.9813 66.8281L144.178 176.881 136.5 178.587 101.806 154.7C96.1188 150.719 88.1562 151.572 83.8906 156.691 78.7719 162.663 80.1937 171.762 86.45 176.028L140.481 212.997C141.903 213.85 143.325 214.703 145.031 214.988L178.872 222.95 180.009 224.372 187.972 242.003 255.938 211.291 250.534 199.631Z" stroke="#000000" stroke-width="2.84379" stroke-linecap="butt" stroke-linejoin="miter" stroke-miterlimit="4" stroke-opacity="1" fill="#FF7E79" fill-rule="nonzero" fill-opacity="1" transform="matrix(-1 0 0 1.00366 774 180)"/></g></g></g></g></g></svg>