<svg width="274" height="275" xmlns="http://www.w3.org/2000/svg" xmlns:xlink="http://www.w3.org/1999/xlink" xml:space="preserve" overflow="hidden"><g transform="translate(-846 -121)"><g><g><g><g><path d="M908.425 264.472 917.525 257.647 894.775 227.503 864.631 250.538 871.456 259.353 885.959 248.262 881.409 282.672 892.784 284.094 897.334 249.969Z" stroke="#000000" stroke-width="2.84378" stroke-linecap="butt" stroke-linejoin="miter" stroke-miterlimit="4" stroke-opacity="1" fill="#83CBEB" fill-rule="nonzero" fill-opacity="1"/><path d="M904.444 197.928 908.994 163.519 897.903 162.097 893.069 196.506 881.978 181.719 872.878 188.544 895.912 218.688 926.056 195.938 919.231 186.837Z" stroke="#000000" stroke-width="2.84378" stroke-linecap="butt" stroke-linejoin="miter" stroke-miterlimit="4" stroke-opacity="1" fill="#83CBEB" fill-rule="nonzero" fill-opacity="1"/><path d="M1097.53 321.631C1090.14 305.138 1108.34 295.184 1094.12 263.903 1090.71 256.509 1079.62 231.769 1075.07 221.816 1071.66 214.137 1062.56 210.441 1054.59 214.137 1051.18 215.559 1048.62 218.119 1046.92 221.531 1046.92 221.816 1046.63 221.816 1046.35 221.531 1045.78 220.109 1045.21 218.972 1044.07 217.834 1041.23 214.137 1036.96 211.863 1032.41 211.863 1025.87 211.578 1020.18 215.559 1017.62 221.247 1017.62 221.531 1017.34 221.531 1017.06 221.247 1011.94 214.706 1002.55 213.569 995.728 218.688 991.747 221.531 989.472 227.219 990.609 232.906 990.609 233.191 990.325 233.191 990.325 232.906L965.869 178.306C963.025 171.766 955.347 168.353 948.806 171.197 942.266 174.041 938.853 181.719 941.697 188.259 941.697 188.544 941.981 188.544 941.981 188.828L991.178 298.881 983.5 300.587 948.806 276.7C943.119 272.719 935.156 273.572 930.891 278.691 925.772 284.663 927.194 293.763 933.45 298.028L987.481 334.997C988.903 335.85 990.325 336.703 992.031 336.987L1025.87 344.95 1027.01 346.372 1034.97 364.003 1102.94 333.291 1097.53 321.631Z" stroke="#000000" stroke-width="2.84378" stroke-linecap="butt" stroke-linejoin="miter" stroke-miterlimit="4" stroke-opacity="1" fill="#83CBEB" fill-rule="nonzero" fill-opacity="1"/></g></g></g></g></g></svg>